<svg width="349" height="264" viewBox="0 0 349 264" fill="none" xmlns="http://www.w3.org/2000/svg">
<path d="M326.099 79.033C355.388 108.322 355.388 155.81 326.099 185.099C296.81 214.388 249.322 214.388 220.033 185.099L167 132.066L220.033 79.033C249.322 49.7437 296.81 49.7437 326.099 79.033Z" fill="#FFA500" fill-opacity="0.5"/>
<path d="M308.421 96.7107C327.948 116.237 327.948 147.895 308.421 167.421C288.895 186.948 257.237 186.948 237.711 167.421L202.355 132.066L237.711 96.7107C257.237 77.1845 288.895 77.1845 308.421 96.7107Z" fill="#FFA500"/>
<path d="M43.099 255.745C33.3359 265.508 17.5068 265.508 7.74369 255.745C-2.01942 245.982 -2.01942 230.153 7.74369 220.39L96.132 132.001L7.74369 43.613C-2.01942 33.8499 -2.01942 18.0208 7.74369 8.25767C17.5068 -1.50544 33.3359 -1.50544 43.099 8.25767L166.843 132.001L43.099 255.745Z" fill="#009999" fill-opacity="0.5"/>
<path d="M78.6777 255.744C68.9146 265.507 53.0854 265.507 43.3223 255.744C33.5592 245.981 33.5592 230.151 43.3223 220.388L131.711 132L43.3223 43.6117C33.5592 33.8485 33.5592 18.0194 43.3223 8.25631C53.0854 -1.50679 68.9146 -1.50679 78.6777 8.25631L202.421 132L78.6777 255.744Z" fill="#009999"/>
</svg>
